<?xml version="1.0" encoding="utf-8"?>
<!-- Generator: Adobe Illustrator 16.0.0, SVG Export Plug-In . SVG Version: 6.00 Build 0)  -->
<!DOCTYPE svg PUBLIC "-//W3C//DTD SVG 1.1//EN" "http://www.w3.org/Graphics/SVG/1.1/DTD/svg11.dtd">
<svg version="1.1" xmlns="http://www.w3.org/2000/svg" xmlns:xlink="http://www.w3.org/1999/xlink" x="0px" y="0px" width="76px"
	 height="76px" viewBox="0 0 76 76" enable-background="new 0 0 76 76" xml:space="preserve">
<g id="Capa_1">
	<path fill="#04607C" d="M37.588-0.002c-20.642,0-37.375,16.733-37.375,37.375c0,20.642,16.733,37.375,37.375,37.375
		c20.642,0,37.376-16.733,37.376-37.375C74.964,16.731,58.229-0.002,37.588-0.002z M37.588,69.792
		c-17.905,0-32.419-14.515-32.419-32.419c0-17.905,14.515-32.419,32.419-32.419c17.904,0,32.419,14.515,32.419,32.419
		C70.007,55.277,55.492,69.792,37.588,69.792z"/>
</g>
<g id="Capa_2">
	
		<line fill="none" stroke="#04607C" stroke-width="3" stroke-linecap="round" stroke-linejoin="round" stroke-miterlimit="10" x1="19" y1="52.5" x2="57" y2="52.5"/>
</g>
<g id="Capa_4">
</g>
<g id="Capa_3">
</g>
</svg>
