<?xml version="1.0" encoding="utf-8"?>
<!-- Generator: Adobe Illustrator 16.0.0, SVG Export Plug-In . SVG Version: 6.00 Build 0)  -->
<!DOCTYPE svg PUBLIC "-//W3C//DTD SVG 1.1//EN" "http://www.w3.org/Graphics/SVG/1.1/DTD/svg11.dtd">
<svg version="1.1" id="Capa_1" xmlns="http://www.w3.org/2000/svg" xmlns:xlink="http://www.w3.org/1999/xlink" x="0px" y="0px"
	 width="76px" height="76px" viewBox="0 0 76 76" enable-background="new 0 0 76 76" xml:space="preserve">
<g id="Capa_1_1_">
	<path fill="#04607C" d="M37.588-0.002c-20.642,0-37.375,16.733-37.375,37.375c0,20.643,16.733,37.375,37.375,37.375
		c20.643,0,37.376-16.732,37.376-37.375C74.964,16.731,58.229-0.002,37.588-0.002z M37.588,69.792
		c-17.905,0-32.419-14.515-32.419-32.419c0-17.905,14.515-32.419,32.419-32.419c17.904,0,32.419,14.515,32.419,32.419
		S55.492,69.792,37.588,69.792z"/>
</g>
<g id="Capa_2">
</g>
<g id="Capa_4">
</g>
<g id="Capa_3">
	<path fill="none" stroke="#04607C" stroke-width="3" stroke-linecap="round" stroke-linejoin="round" stroke-miterlimit="10" d="
		M56.766,46.266c0,0-7.485,8.154-18.472,8.287c-5.626,0.066-13.068-1.971-19.035-8.287"/>
</g>
</svg>
